# Blender v2.76 (sub 0) OBJ File: 'lamp_bubble.blend' by Rashintawak for WarpDrive mod
# All rights reserved
mtllib lamp_bubble.mtl
o Cylinder
v 0.500000 0.567952 0.850000
v 0.500000 0.692952 0.702866
v 0.356552 0.692952 0.643448
v 0.252513 0.567952 0.747487
v 0.297134 0.692952 0.500000
v 0.150000 0.567952 0.500000
v 0.356552 0.692952 0.356552
v 0.252513 0.567952 0.252513
v 0.500000 0.692952 0.297134
v 0.500000 0.567952 0.150000
v 0.643448 0.692952 0.356552
v 0.747487 0.567952 0.252513
v 0.702866 0.692952 0.500000
v 0.850000 0.567952 0.500000
v 0.643448 0.692952 0.643448
v 0.747487 0.567952 0.747487
v 0.146447 -0.000000 0.146447
v 0.500000 0.000000 0.000000
v 0.853553 -0.000000 0.146447
v 1.000000 -0.000000 0.500000
v 1.000000 0.134115 0.500000
v 0.853553 0.134115 0.853553
v 0.853553 -0.000000 0.853553
v 0.925293 0.206137 0.500000
v 0.800728 0.206137 0.800728
v 0.900000 0.410182 0.500000
v 0.782843 0.410182 0.782843
v 0.500000 0.134115 1.000000
v 0.500000 -0.000000 1.000000
v 0.500000 0.206137 0.925293
v 0.500000 0.410182 0.900000
v 0.853553 0.134115 0.146447
v 0.800728 0.206137 0.199272
v 0.782843 0.410182 0.217157
v 0.500000 0.134115 0.000000
v 0.500000 0.206137 0.074707
v 0.500000 0.410182 0.100000
v 0.146447 0.134115 0.146447
v 0.199272 0.206137 0.199272
v 0.217157 0.410182 0.217157
v 0.000000 -0.000000 0.500000
v 0.000000 0.134115 0.500000
v 0.074707 0.206137 0.500000
v 0.100000 0.410182 0.500000
v 0.146447 -0.000000 0.853553
v 0.146447 0.134115 0.853553
v 0.199272 0.206137 0.800728
v 0.217157 0.410182 0.782843
v 0.424818 0.206137 0.424818
v 0.393677 0.206137 0.500000
v 0.575182 0.206137 0.575182
v 0.606323 0.206137 0.500000
v 0.575182 0.206137 0.424818
v 0.500000 0.206137 0.393677
v 0.424818 0.206137 0.575182
v 0.500000 0.206137 0.606323
v 0.424818 0.551294 0.424818
v 0.393677 0.551294 0.500000
v 0.575182 0.551294 0.424818
v 0.500000 0.551294 0.393677
v 0.500000 0.551294 0.606323
v 0.575182 0.551294 0.575182
v 0.424818 0.551294 0.575182
v 0.606323 0.551294 0.500000
vt 0.5275 0.4619
vt 0.4625 0.6749
vt 0.2834 0.6749
vt 0.2185 0.4619
vt 0.5275 0.4619
vt 0.4625 0.6749
vt 0.2834 0.6749
vt 0.2185 0.4619
vt 0.5275 0.4619
vt 0.4625 0.6749
vt 0.2834 0.6749
vt 0.2185 0.4619
vt 0.5275 0.4619
vt 0.4625 0.6749
vt 0.2834 0.6749
vt 0.2185 0.4619
vt 0.5275 0.4619
vt 0.4625 0.6749
vt 0.2834 0.6749
vt 0.2185 0.4619
vt 0.5275 0.4619
vt 0.4625 0.6749
vt 0.2834 0.6749
vt 0.2185 0.4619
vt 0.4183 0.9852
vt 0.3245 0.9852
vt 0.4846 0.8251
vt 0.4846 0.9189
vt 0.5275 0.4619
vt 0.4625 0.6749
vt 0.2834 0.6749
vt 0.2185 0.4619
vt 0.5275 0.4619
vt 0.4625 0.6749
vt 0.2834 0.6749
vt 0.2185 0.4619
vt 0.7999 0.9845
vt 0.7087 0.9845
vt 0.6441 0.9200
vt 0.6441 0.8287
vt 0.9878 0.0144
vt 0.9878 0.1387
vt 0.6332 0.1387
vt 0.6332 0.0144
vt 0.9614 0.2311
vt 0.6597 0.2311
vt 0.5607 0.0354
vt 0.5496 0.2723
vt 0.1964 0.2723
vt 0.1852 0.0354
vt 0.9878 0.0144
vt 0.9878 0.1387
vt 0.6332 0.1387
vt 0.6332 0.0144
vt 0.9614 0.2311
vt 0.6597 0.2311
vt 0.5607 0.0354
vt 0.5496 0.2723
vt 0.1964 0.2723
vt 0.1852 0.0354
vt 0.9878 0.0144
vt 0.9878 0.1387
vt 0.6332 0.1387
vt 0.6332 0.0144
vt 0.9614 0.2311
vt 0.6597 0.2311
vt 0.5607 0.0354
vt 0.5496 0.2723
vt 0.1964 0.2723
vt 0.1852 0.0354
vt 0.9878 0.0144
vt 0.9878 0.1387
vt 0.6332 0.1387
vt 0.6332 0.0144
vt 0.9614 0.2311
vt 0.6597 0.2311
vt 0.5607 0.0354
vt 0.5496 0.2723
vt 0.1964 0.2723
vt 0.1852 0.0354
vt 0.9878 0.0144
vt 0.9878 0.1387
vt 0.6332 0.1387
vt 0.6332 0.0144
vt 0.9614 0.2311
vt 0.6597 0.2311
vt 0.5607 0.0354
vt 0.5496 0.2723
vt 0.1964 0.2723
vt 0.1852 0.0354
vt 0.9878 0.0144
vt 0.9878 0.1387
vt 0.6332 0.1387
vt 0.6332 0.0144
vt 0.9614 0.2311
vt 0.6597 0.2311
vt 0.5607 0.0354
vt 0.5496 0.2723
vt 0.1964 0.2723
vt 0.1852 0.0354
vt 0.9878 0.0144
vt 0.9878 0.1387
vt 0.6332 0.1387
vt 0.6332 0.0144
vt 0.9614 0.2311
vt 0.6597 0.2311
vt 0.5607 0.0354
vt 0.5496 0.2723
vt 0.1964 0.2723
vt 0.1852 0.0354
vt 0.9878 0.0144
vt 0.9878 0.1387
vt 0.6332 0.1387
vt 0.6332 0.0144
vt 0.9614 0.2311
vt 0.6597 0.2311
vt 0.5607 0.0354
vt 0.5496 0.2723
vt 0.1964 0.2723
vt 0.1852 0.0354
vt 0.3245 0.7588
vt 0.4183 0.7588
vt 0.2582 0.9189
vt 0.2582 0.8251
vt 0.7999 0.7642
vt 0.8644 0.8287
vt 0.8644 0.9200
vt 0.7087 0.7642
vt 0.9766 0.5011
vt 0.8815 0.5962
vt 0.8311 0.4744
vt 0.8549 0.4507
vt 0.6519 0.3666
vt 0.7470 0.2715
vt 0.7975 0.3933
vt 0.7737 0.4170
vt 0.7470 0.5962
vt 0.6519 0.5011
vt 0.7737 0.4507
vt 0.7975 0.4744
vt 0.9766 0.3666
vt 0.8549 0.4170
vt 0.8815 0.2715
vt 0.8311 0.3933
vt 0.0079 0.0034
vt 0.1251 0.0034
vt 0.1251 0.4961
vt 0.0079 0.4961
vt 0.0079 0.0034
vt 0.1251 0.0034
vt 0.1251 0.4961
vt 0.0079 0.4961
vt 0.0079 0.0034
vt 0.1251 0.0034
vt 0.1251 0.4961
vt 0.0079 0.4961
vt 0.0079 0.0034
vt 0.1251 0.0034
vt 0.1251 0.4961
vt 0.0079 0.4961
vt 0.0079 0.0034
vt 0.1251 0.0034
vt 0.1251 0.4961
vt 0.0079 0.4961
vt 0.0079 0.0034
vt 0.1251 0.0034
vt 0.1251 0.4961
vt 0.0079 0.4961
vt 0.0079 0.0034
vt 0.1251 0.0034
vt 0.1251 0.4961
vt 0.0079 0.4961
vt 0.0079 0.0034
vt 0.1251 0.0034
vt 0.1251 0.4961
vt 0.0079 0.4961
vt 0.0281 0.7084
vt 0.0864 0.6520
vt 0.1688 0.6520
vt 0.2271 0.7084
vt 0.0864 0.8445
vt 0.0281 0.7881
vt 0.2271 0.7881
vt 0.1688 0.8445
vn -0.2590 0.7361 0.6254
vn -0.6254 0.7361 0.2590
vn -0.6254 0.7361 -0.2590
vn -0.2590 0.7361 -0.6254
vn 0.2590 0.7361 -0.6254
vn 0.6254 0.7361 -0.2590
vn 0.0000 1.0000 0.0000
vn 0.2590 0.7361 0.6254
vn 0.6254 0.7361 0.2590
vn 0.0000 -1.0000 -0.0000
vn 0.9239 0.0000 0.3827
vn 0.6670 0.6919 0.2763
vn 0.9179 0.1138 0.3802
vn 0.3827 0.0000 0.9239
vn 0.2763 0.6919 0.6670
vn 0.3802 0.1138 0.9179
vn 0.9239 0.0000 -0.3827
vn 0.6670 0.6919 -0.2763
vn 0.9179 0.1138 -0.3802
vn 0.3827 0.0000 -0.9239
vn 0.2763 0.6919 -0.6670
vn 0.3802 0.1138 -0.9179
vn -0.3827 0.0000 -0.9239
vn -0.2763 0.6919 -0.6670
vn -0.3802 0.1138 -0.9179
vn -0.9239 0.0000 -0.3827
vn -0.6670 0.6919 -0.2763
vn -0.9179 0.1138 -0.3802
vn -0.9239 0.0000 0.3827
vn -0.6670 0.6919 0.2763
vn -0.9179 0.1138 0.3802
vn -0.3827 0.0000 0.9239
vn -0.2763 0.6919 0.6670
vn -0.3802 0.1138 0.9179
vn 0.8867 0.2810 0.3673
vn 0.3673 0.2810 0.8867
vn 0.8867 0.2810 -0.3673
vn 0.3673 0.2810 -0.8867
vn -0.3673 0.2810 -0.8867
vn -0.8867 0.2810 -0.3673
vn -0.8867 0.2810 0.3673
vn -0.3673 0.2810 0.8867
usemtl txt_lamp_bubble
s 1
f 1/1/1 2/2/1 3/3/1 4/4/1
f 4/5/2 3/6/2 5/7/2 6/8/2
f 6/9/3 5/10/3 7/11/3 8/12/3
f 8/13/4 7/14/4 9/15/4 10/16/4
f 10/17/5 9/18/5 11/19/5 12/20/5
f 12/21/6 11/22/6 13/23/6 14/24/6
f 2/25/7 15/26/7 5/27/7 3/28/7
f 16/29/8 15/30/8 2/31/8 1/32/8
f 14/33/9 13/34/9 15/35/9 16/36/9
f 17/37/10 18/38/10 19/39/10 20/40/10
f 20/41/11 21/42/11 22/43/11 23/44/11
f 21/42/12 24/45/12 25/46/12 22/43/12
f 24/47/13 26/48/13 27/49/13 25/50/13
f 23/51/14 22/52/14 28/53/14 29/54/14
f 22/52/15 25/55/15 30/56/15 28/53/15
f 25/57/16 27/58/16 31/59/16 30/60/16
f 19/61/17 32/62/17 21/63/17 20/64/17
f 32/62/18 33/65/18 24/66/18 21/63/18
f 33/67/19 34/68/19 26/69/19 24/70/19
f 18/71/20 35/72/20 32/73/20 19/74/20
f 35/72/21 36/75/21 33/76/21 32/73/21
f 36/77/22 37/78/22 34/79/22 33/80/22
f 17/81/23 38/82/23 35/83/23 18/84/23
f 38/82/24 39/85/24 36/86/24 35/83/24
f 39/87/25 40/88/25 37/89/25 36/90/25
f 41/91/26 42/92/26 38/93/26 17/94/26
f 42/92/27 43/95/27 39/96/27 38/93/27
f 43/97/28 44/98/28 40/99/28 39/100/28
f 45/101/29 46/102/29 42/103/29 41/104/29
f 46/102/30 47/105/30 43/106/30 42/103/30
f 47/107/31 48/108/31 44/109/31 43/110/31
f 29/111/32 28/112/32 46/113/32 45/114/32
f 28/112/33 30/115/33 47/116/33 46/113/33
f 30/117/34 31/118/34 48/119/34 47/120/34
f 26/48/35 14/33/35 16/36/35 27/49/35
f 27/58/36 16/29/36 1/32/36 31/59/36
f 34/68/37 12/21/37 14/24/37 26/69/37
f 37/78/38 10/17/38 12/20/38 34/79/38
f 40/88/39 8/13/39 10/16/39 37/89/39
f 44/98/40 6/9/40 8/12/40 40/99/40
f 48/108/41 4/5/41 6/8/41 44/109/41
f 31/118/42 1/1/42 4/4/42 48/119/42
f 9/121/7 7/122/7 13/123/7 11/124/7
f 29/125/10 45/126/10 41/127/10 23/128/10
f 41/127/10 17/37/10 20/40/10 23/128/10
f 7/122/7 5/27/7 15/26/7 13/123/7
f 43/129/10 39/130/10 49/131/10 50/132/10
f 24/133/10 25/134/10 51/135/10 52/136/10
f 36/137/10 33/138/10 53/139/10 54/140/10
f 47/141/10 43/129/10 50/132/10 55/142/10
f 25/134/10 30/143/10 56/144/10 51/135/10
f 39/130/10 36/137/10 54/140/10 49/131/10
f 30/143/10 47/141/10 55/142/10 56/144/10
f 33/138/10 24/133/10 52/136/10 53/139/10
f 50/145/11 49/146/11 57/147/11 58/148/11
f 54/149/32 53/150/32 59/151/32 60/152/32
f 51/153/23 56/154/23 61/155/23 62/156/23
f 55/157/17 50/158/17 58/159/17 63/160/17
f 49/161/14 54/162/14 60/163/14 57/164/14
f 53/165/29 52/166/29 64/167/29 59/168/29
f 52/169/26 51/170/26 62/171/26 64/172/26
f 56/173/20 55/174/20 63/175/20 61/176/20
f 62/177/10 61/178/10 63/179/10 58/180/10
f 59/181/10 64/182/10 57/183/10 60/184/10
f 64/182/10 62/177/10 58/180/10 57/183/10
